REM MD5 14101465778aa10fa651a18a6f6360a5
FILE "Arcade Hits - Crazy Climber (Japan).bin" BINARY
  TRACK 01 MODE2/2352
    INDEX 01 00:00:00
  TRACK 02 AUDIO
    INDEX 00 02:06:68
    INDEX 01 02:08:68
  TRACK 03 AUDIO
    INDEX 00 04:03:52
    INDEX 01 04:05:52
  TRACK 04 AUDIO
    INDEX 00 05:54:05
    INDEX 01 05:56:05
REM LEADOUT 09:14:19
